<svg width="364" height="372" viewBox="0 0 364 372" fill="none" xmlns="http://www.w3.org/2000/svg">
<g filter="url(#filter0_d_136_448)">
<path d="M82.7422 129C82.7422 106.909 100.651 89 122.742 89H221.355C243.446 89 261.355 106.909 261.355 129V236.526C261.355 258.618 243.446 276.526 221.355 276.526H122.742C100.651 276.526 82.7422 258.618 82.7422 236.526V129Z" fill="#624D44" fill-opacity="0.5" shape-rendering="crispEdges"/>
<path d="M82.7422 129C82.7422 106.909 100.651 89 122.742 89H221.355C243.446 89 261.355 106.909 261.355 129V236.526C261.355 258.618 243.446 276.526 221.355 276.526H122.742C100.651 276.526 82.7422 258.618 82.7422 236.526V129Z" stroke="#624D44" stroke-opacity="0.47" stroke-width="2" shape-rendering="crispEdges"/>
</g>
<defs>
<filter id="filter0_d_136_448" x="0.742188" y="0" width="362.613" height="371.526" filterUnits="userSpaceOnUse" color-interpolation-filters="sRGB">
<feFlood flood-opacity="0" result="BackgroundImageFix"/>
<feColorMatrix in="SourceAlpha" type="matrix" values="0 0 0 0 0 0 0 0 0 0 0 0 0 0 0 0 0 0 127 0" result="hardAlpha"/>
<feOffset dx="10" dy="3"/>
<feGaussianBlur stdDeviation="45.5"/>
<feComposite in2="hardAlpha" operator="out"/>
<feColorMatrix type="matrix" values="0 0 0 0 0 0 0 0 0 0 0 0 0 0 0 0 0 0 0.3 0"/>
<feBlend mode="normal" in2="BackgroundImageFix" result="effect1_dropShadow_136_448"/>
<feBlend mode="normal" in="SourceGraphic" in2="effect1_dropShadow_136_448" result="shape"/>
</filter>
</defs>
</svg>
