<svg width="364" height="372" viewBox="0 0 364 372" fill="none" xmlns="http://www.w3.org/2000/svg">
<g filter="url(#filter0_d_136_436)">
<path d="M82.9648 129C82.9648 106.909 100.873 89 122.965 89H221.577C243.669 89 261.577 106.909 261.577 129V237C261.577 259.091 243.669 277 221.577 277H122.965C100.873 277 82.9648 259.091 82.9648 237V129Z" fill="#624D44" fill-opacity="0.5" shape-rendering="crispEdges"/>
<path d="M82.9648 129C82.9648 106.909 100.873 89 122.965 89H221.577C243.669 89 261.577 106.909 261.577 129V237C261.577 259.091 243.669 277 221.577 277H122.965C100.873 277 82.9648 259.091 82.9648 237V129Z" stroke="#624D44" stroke-opacity="0.47" stroke-width="2" shape-rendering="crispEdges"/>
</g>
<defs>
<filter id="filter0_d_136_436" x="0.964844" y="0" width="362.613" height="372" filterUnits="userSpaceOnUse" color-interpolation-filters="sRGB">
<feFlood flood-opacity="0" result="BackgroundImageFix"/>
<feColorMatrix in="SourceAlpha" type="matrix" values="0 0 0 0 0 0 0 0 0 0 0 0 0 0 0 0 0 0 127 0" result="hardAlpha"/>
<feOffset dx="10" dy="3"/>
<feGaussianBlur stdDeviation="45.5"/>
<feComposite in2="hardAlpha" operator="out"/>
<feColorMatrix type="matrix" values="0 0 0 0 0 0 0 0 0 0 0 0 0 0 0 0 0 0 0.3 0"/>
<feBlend mode="normal" in2="BackgroundImageFix" result="effect1_dropShadow_136_436"/>
<feBlend mode="normal" in="SourceGraphic" in2="effect1_dropShadow_136_436" result="shape"/>
</filter>
</defs>
</svg>
