<svg width="363" height="372" viewBox="0 0 363 372" fill="none" xmlns="http://www.w3.org/2000/svg">
<g filter="url(#filter0_d_136_286)">
<path d="M82.2246 129C82.2246 106.909 100.133 89 122.225 89H220.837C242.928 89 260.837 106.909 260.837 129V237C260.837 259.091 242.928 277 220.837 277H122.225C100.133 277 82.2246 259.091 82.2246 237V129Z" fill="#624D44" fill-opacity="0.5" shape-rendering="crispEdges"/>
<path d="M82.2246 129C82.2246 106.909 100.133 89 122.225 89H220.837C242.928 89 260.837 106.909 260.837 129V237C260.837 259.091 242.928 277 220.837 277H122.225C100.133 277 82.2246 259.091 82.2246 237V129Z" stroke="#624D44" stroke-opacity="0.47" stroke-width="2" shape-rendering="crispEdges"/>
</g>
<defs>
<filter id="filter0_d_136_286" x="0.224609" y="0" width="362.613" height="372" filterUnits="userSpaceOnUse" color-interpolation-filters="sRGB">
<feFlood flood-opacity="0" result="BackgroundImageFix"/>
<feColorMatrix in="SourceAlpha" type="matrix" values="0 0 0 0 0 0 0 0 0 0 0 0 0 0 0 0 0 0 127 0" result="hardAlpha"/>
<feOffset dx="10" dy="3"/>
<feGaussianBlur stdDeviation="45.5"/>
<feComposite in2="hardAlpha" operator="out"/>
<feColorMatrix type="matrix" values="0 0 0 0 0 0 0 0 0 0 0 0 0 0 0 0 0 0 0.3 0"/>
<feBlend mode="normal" in2="BackgroundImageFix" result="effect1_dropShadow_136_286"/>
<feBlend mode="normal" in="SourceGraphic" in2="effect1_dropShadow_136_286" result="shape"/>
</filter>
</defs>
</svg>
